<?xml version="1.0" encoding="UTF-8"?>
<!DOCTYPE svg PUBLIC "-//W3C//DTD SVG 1.1//EN" "http://www.w3.org/Graphics/SVG/1.1/DTD/svg11.dtd">
<svg xmlns="http://www.w3.org/2000/svg" version="1.1" width="512px" height="512px" style="shape-rendering:geometricPrecision; text-rendering:geometricPrecision; image-rendering:optimizeQuality; fill-rule:evenodd; clip-rule:evenodd" xmlns:xlink="http://www.w3.org/1999/xlink">
<g><path style="opacity:0.992" fill="#e3b561" d="M 107.5,58.5 C 82.6902,68.7838 73.1902,87.1171 79,113.5C 84.0824,126.75 93.2491,135.75 106.5,140.5C 84.084,145.044 67.584,137.044 57,116.5C 49.2977,91.0841 57.131,72.2508 80.5,60C 89.3875,57.3581 98.3875,56.8581 107.5,58.5 Z"/></g>
<g><path style="opacity:0.99" fill="#fbc86b" d="M 107.5,58.5 C 133.966,68.7651 143.466,87.7651 136,115.5C 130.542,129.134 120.708,137.467 106.5,140.5C 93.2491,135.75 84.0824,126.75 79,113.5C 73.1902,87.1171 82.6902,68.7838 107.5,58.5 Z"/></g>
<g><path style="opacity:0.996" fill="#b7704a" d="M 356.5,95.5 C 345.478,109.863 334.812,124.53 324.5,139.5C 316.154,139.511 313.154,143.511 315.5,151.5C 309.167,160.833 302.833,170.167 296.5,179.5C 295.488,180.872 294.488,182.205 293.5,183.5C 291.777,185.253 290.277,187.253 289,189.5C 288.184,190.823 287.017,191.489 285.5,191.5C 281.135,185.477 276.801,179.477 272.5,173.5C 272.5,172.833 272.5,172.167 272.5,171.5C 295.303,140.515 317.97,109.349 340.5,78C 342.464,77.376 344.131,77.876 345.5,79.5C 349.192,84.8513 352.859,90.1846 356.5,95.5 Z"/></g>
<g><path style="opacity:0.996" fill="#ca7b51" d="M 356.5,95.5 C 361.549,101.885 366.215,108.552 370.5,115.5C 363.053,115.071 355.719,115.571 348.5,117C 345.114,120.373 344.614,124.206 347,128.5C 347.75,129.126 348.584,129.626 349.5,130C 360.008,130.825 370.342,130.659 380.5,129.5C 400.269,155.605 419.269,182.272 437.5,209.5C 424.833,209.5 412.167,209.5 399.5,209.5C 399.802,206.941 399.468,204.607 398.5,202.5C 398.047,201.542 397.381,200.708 396.5,200C 389.167,199.333 381.833,199.333 374.5,200C 372.66,202.826 371.994,205.993 372.5,209.5C 355.658,209.17 338.992,209.503 322.5,210.5C 320.771,211.117 319.271,212.117 318,213.5C 316.058,218.377 313.892,223.044 311.5,227.5C 302.478,215.803 293.811,203.803 285.5,191.5C 287.017,191.489 288.184,190.823 289,189.5C 290.277,187.253 291.777,185.253 293.5,183.5C 292.705,187.594 294.038,190.761 297.5,193C 306.833,193.667 316.167,193.667 325.5,193C 329.212,190.487 330.378,186.987 329,182.5C 327.786,180.951 326.286,179.785 324.5,179C 315.119,178.22 305.786,178.387 296.5,179.5C 302.833,170.167 309.167,160.833 315.5,151.5C 316.627,152.122 317.627,152.955 318.5,154C 326.167,154.667 333.833,154.667 341.5,154C 346.913,150.844 347.913,146.51 344.5,141C 337.95,139.58 331.284,139.08 324.5,139.5C 334.812,124.53 345.478,109.863 356.5,95.5 Z"/></g>
<g><path style="opacity:0.995" fill="#e68f36" d="M 243.5,132.5 C 227.811,153.531 212.478,174.864 197.5,196.5C 196.317,195.496 194.984,194.662 193.5,194C 186.174,193.5 178.841,193.334 171.5,193.5C 189.779,167.128 208.446,140.961 227.5,115C 229.701,114.175 231.534,114.675 233,116.5C 236.769,121.719 240.269,127.053 243.5,132.5 Z"/></g>
<g><path style="opacity:1" fill="#ac5536" d="M 370.5,115.5 C 374.321,119.806 377.655,124.473 380.5,129.5C 370.342,130.659 360.008,130.825 349.5,130C 348.584,129.626 347.75,129.126 347,128.5C 344.614,124.206 345.114,120.373 348.5,117C 355.719,115.571 363.053,115.071 370.5,115.5 Z"/></g>
<g><path style="opacity:0.998" fill="#fe9e3d" d="M 243.5,132.5 C 250.31,140.774 256.644,149.441 262.5,158.5C 253.494,158.334 244.494,158.5 235.5,159C 230.177,163.62 230.177,168.286 235.5,173C 247.829,173.5 260.162,173.667 272.5,173.5C 276.801,179.477 281.135,185.477 285.5,191.5C 293.811,203.803 302.478,215.803 311.5,227.5C 311.443,228.609 311.11,229.609 310.5,230.5C 293.163,230.333 275.83,230.5 258.5,231C 253.274,235.251 253.274,239.585 258.5,244C 273.83,244.5 289.163,244.667 304.5,244.5C 300.346,254.805 295.679,264.805 290.5,274.5C 287.15,274.335 283.817,274.502 280.5,275C 275.776,277.435 274.276,281.269 276,286.5C 278.305,288.93 281.138,289.93 284.5,289.5C 283.62,292.262 282.454,294.929 281,297.5C 280.333,300.167 280.333,302.833 281,305.5C 284.002,309.334 287.169,313 290.5,316.5C 275.5,316.5 260.5,316.5 245.5,316.5C 245.667,300.497 245.5,284.497 245,268.5C 244.167,267.667 243.333,266.833 242.5,266C 233.833,265.333 225.167,265.333 216.5,266C 214.667,266.5 213.5,267.667 213,269.5C 212.5,285.163 212.333,300.83 212.5,316.5C 192.66,316.17 172.993,316.503 153.5,317.5C 145.768,308.372 138.768,298.706 132.5,288.5C 142.244,274.021 152.244,259.688 162.5,245.5C 169.841,245.666 177.174,245.5 184.5,245C 190.471,242.065 191.804,237.731 188.5,232C 184.116,229.792 179.449,228.959 174.5,229.5C 179.141,222.518 183.807,215.518 188.5,208.5C 196.841,208.481 199.841,204.481 197.5,196.5C 212.478,174.864 227.811,153.531 243.5,132.5 Z"/></g>
<g><path style="opacity:1" fill="#ab5436" d="M 324.5,139.5 C 331.284,139.08 337.95,139.58 344.5,141C 347.913,146.51 346.913,150.844 341.5,154C 333.833,154.667 326.167,154.667 318.5,154C 317.627,152.955 316.627,152.122 315.5,151.5C 313.154,143.511 316.154,139.511 324.5,139.5 Z"/></g>
<g><path style="opacity:1" fill="#ffae67" d="M 262.5,158.5 C 265.833,162.833 269.167,167.167 272.5,171.5C 272.5,172.167 272.5,172.833 272.5,173.5C 260.162,173.667 247.829,173.5 235.5,173C 230.177,168.286 230.177,163.62 235.5,159C 244.494,158.5 253.494,158.334 262.5,158.5 Z"/></g>
<g><path style="opacity:1" fill="#ac5536" d="M 360.5,163.5 C 366.842,163.334 373.175,163.5 379.5,164C 383.124,166.161 384.291,169.328 383,173.5C 381.891,175.815 380.057,177.315 377.5,178C 372.167,178.667 366.833,178.667 361.5,178C 355.27,173.485 354.937,168.652 360.5,163.5 Z"/></g>
<g><path style="opacity:1" fill="#ab5436" d="M 293.5,183.5 C 294.488,182.205 295.488,180.872 296.5,179.5C 305.786,178.387 315.119,178.22 324.5,179C 326.286,179.785 327.786,180.951 329,182.5C 330.378,186.987 329.212,190.487 325.5,193C 316.167,193.667 306.833,193.667 297.5,193C 294.038,190.761 292.705,187.594 293.5,183.5 Z"/></g>
<g><path style="opacity:1" fill="#feae67" d="M 171.5,193.5 C 178.841,193.334 186.174,193.5 193.5,194C 194.984,194.662 196.317,195.496 197.5,196.5C 199.841,204.481 196.841,208.481 188.5,208.5C 179.167,208.5 169.833,208.5 160.5,208.5C 163.812,203.196 167.479,198.196 171.5,193.5 Z"/></g>
<g><path style="opacity:1" fill="#ffae67" d="M 214.5,193.5 C 223.506,193.334 232.506,193.5 241.5,194C 248.095,196.97 249.095,201.303 244.5,207C 234.574,208.59 224.574,208.923 214.5,208C 211.634,206.607 210.301,204.274 210.5,201C 210.43,197.634 211.763,195.134 214.5,193.5 Z"/></g>
<g><path style="opacity:1" fill="#feba4a" d="M 398.5,202.5 C 398.5,213.833 398.5,225.167 398.5,236.5C 389.833,236.5 381.167,236.5 372.5,236.5C 372.5,227.5 372.5,218.5 372.5,209.5C 371.994,205.993 372.66,202.826 374.5,200C 381.833,199.333 389.167,199.333 396.5,200C 397.381,200.708 398.047,201.542 398.5,202.5 Z"/></g>
<g><path style="opacity:0.999" fill="#e68f37" d="M 160.5,208.5 C 169.833,208.5 179.167,208.5 188.5,208.5C 183.807,215.518 179.141,222.518 174.5,229.5C 164.833,229.5 155.167,229.5 145.5,229.5C 150.267,222.286 155.267,215.286 160.5,208.5 Z"/></g>
<g><path style="opacity:0.993" fill="#feba4a" d="M 437.5,209.5 C 441.514,209.334 445.514,209.501 449.5,210C 451.286,210.785 452.786,211.951 454,213.5C 466.333,241.5 478.667,269.5 491,297.5C 491.817,300.964 491.483,304.298 490,307.5C 480.159,318.532 470.326,329.532 460.5,340.5C 449.581,341.477 438.581,341.81 427.5,341.5C 421.192,332.185 414.859,322.851 408.5,313.5C 423.088,316.897 430.088,311.231 429.5,296.5C 444.36,296.467 451.026,288.967 449.5,274C 450.866,259.202 444.199,252.036 429.5,252.5C 429.5,247.167 429.5,241.833 429.5,236.5C 432.34,235.314 434.506,233.314 436,230.5C 436.667,225.5 436.667,220.5 436,215.5C 434.833,213.667 433.333,212.167 431.5,211C 433.708,210.809 435.708,210.309 437.5,209.5 Z"/></g>
<g><path style="opacity:0.998" fill="#e6a943" d="M 322.5,210.5 C 328.509,210.334 334.509,210.501 340.5,211C 338,212.167 336.167,214 335,216.5C 334.502,219.817 334.335,223.15 334.5,226.5C 323.036,251.102 312.369,276.102 302.5,301.5C 302.515,303.634 303.015,305.634 304,307.5C 314.408,318.677 324.575,330.01 334.5,341.5C 333.833,341.5 333.167,341.5 332.5,341.5C 325.11,341.764 317.777,341.43 310.5,340.5C 303.833,332.5 297.167,324.5 290.5,316.5C 287.169,313 284.002,309.334 281,305.5C 280.333,302.833 280.333,300.167 281,297.5C 282.454,294.929 283.62,292.262 284.5,289.5C 286.893,284.652 288.893,279.652 290.5,274.5C 295.679,264.805 300.346,254.805 304.5,244.5C 306.503,239.829 308.503,235.162 310.5,230.5C 311.11,229.609 311.443,228.609 311.5,227.5C 313.892,223.044 316.058,218.377 318,213.5C 319.271,212.117 320.771,211.117 322.5,210.5 Z"/></g>
<g><path style="opacity:1" fill="#fe9f3d" d="M 322.5,210.5 C 338.992,209.503 355.658,209.17 372.5,209.5C 372.5,218.5 372.5,227.5 372.5,236.5C 362.5,236.5 352.5,236.5 342.5,236.5C 338.034,234.692 335.367,231.359 334.5,226.5C 334.335,223.15 334.502,219.817 335,216.5C 336.167,214 338,212.167 340.5,211C 334.509,210.501 328.509,210.334 322.5,210.5 Z"/></g>
<g><path style="opacity:1" fill="#fe9f3e" d="M 398.5,202.5 C 399.468,204.607 399.802,206.941 399.5,209.5C 412.167,209.5 424.833,209.5 437.5,209.5C 435.708,210.309 433.708,210.809 431.5,211C 433.333,212.167 434.833,213.667 436,215.5C 436.667,220.5 436.667,225.5 436,230.5C 434.506,233.314 432.34,235.314 429.5,236.5C 419.167,236.5 408.833,236.5 398.5,236.5C 398.5,225.167 398.5,213.833 398.5,202.5 Z"/></g>
<g><path style="opacity:1" fill="#feba49" d="M 334.5,226.5 C 335.367,231.359 338.034,234.692 342.5,236.5C 342.5,241.833 342.5,247.167 342.5,252.5C 327.888,251.778 320.888,258.778 321.5,273.5C 319.911,284.164 323.911,291.664 333.5,296C 336.592,296.736 339.592,296.569 342.5,295.5C 340.565,310.894 347.232,316.894 362.5,313.5C 356.167,322.833 349.833,332.167 343.5,341.5C 340.5,341.5 337.5,341.5 334.5,341.5C 324.575,330.01 314.408,318.677 304,307.5C 303.015,305.634 302.515,303.634 302.5,301.5C 312.369,276.102 323.036,251.102 334.5,226.5 Z"/></g>
<g><path style="opacity:0.986" fill="#b7704a" d="M 103.5,247.5 C 91.7809,262.552 80.4476,277.885 69.5,293.5C 62.8833,292.411 56.2166,292.244 49.5,293C 43.7905,296.757 43.1238,301.257 47.5,306.5C 51.4295,307.433 55.4295,307.766 59.5,307.5C 52.8861,317.287 46.0528,326.954 39,336.5C 36.898,339.126 37.0646,341.459 39.5,343.5C 29.8276,343.666 20.1609,343.5 10.5,343C 8.03234,341.412 7.86567,339.578 10,337.5C 35.5,302 61,266.5 86.5,231C 88.1667,230.333 89.8333,230.333 91.5,231C 95.7182,236.378 99.7182,241.878 103.5,247.5 Z"/></g>
<g><path style="opacity:1" fill="#fead65" d="M 145.5,229.5 C 155.167,229.5 164.833,229.5 174.5,229.5C 179.449,228.959 184.116,229.792 188.5,232C 191.804,237.731 190.471,242.065 184.5,245C 177.174,245.5 169.841,245.666 162.5,245.5C 153.083,245.805 143.75,245.472 134.5,244.5C 137.934,239.284 141.601,234.284 145.5,229.5 Z"/></g>
<g><path style="opacity:1" fill="#feae67" d="M 310.5,230.5 C 308.503,235.162 306.503,239.829 304.5,244.5C 289.163,244.667 273.83,244.5 258.5,244C 253.274,239.585 253.274,235.251 258.5,231C 275.83,230.5 293.163,230.333 310.5,230.5 Z"/></g>
<g><path style="opacity:1" fill="#fcc86b" d="M 342.5,236.5 C 352.5,236.5 362.5,236.5 372.5,236.5C 381.167,236.5 389.833,236.5 398.5,236.5C 408.833,236.5 419.167,236.5 429.5,236.5C 429.5,241.833 429.5,247.167 429.5,252.5C 429.5,267.167 429.5,281.833 429.5,296.5C 430.088,311.231 423.088,316.897 408.5,313.5C 393.167,313.5 377.833,313.5 362.5,313.5C 347.232,316.894 340.565,310.894 342.5,295.5C 342.5,281.167 342.5,266.833 342.5,252.5C 342.5,247.167 342.5,241.833 342.5,236.5 Z"/></g>
<g><path style="opacity:0.998" fill="#e68e37" d="M 134.5,244.5 C 143.75,245.472 153.083,245.805 162.5,245.5C 152.244,259.688 142.244,274.021 132.5,288.5C 130.844,286.54 129.177,284.54 127.5,282.5C 124.922,278.354 122.089,274.354 119,270.5C 118.517,269.552 118.351,268.552 118.5,267.5C 123.833,259.833 129.167,252.167 134.5,244.5 Z"/></g>
<g><path style="opacity:0.981" fill="#ca7b51" d="M 103.5,247.5 C 108.167,254.167 112.833,260.833 117.5,267.5C 109.493,267.334 101.493,267.5 93.5,268C 88.1667,272.667 88.1667,277.333 93.5,282C 104.828,282.5 116.162,282.667 127.5,282.5C 129.177,284.54 130.844,286.54 132.5,288.5C 138.768,298.706 145.768,308.372 153.5,317.5C 158.079,324.314 162.913,330.981 168,337.5C 168.743,339.441 168.576,341.274 167.5,343C 124.835,343.5 82.168,343.667 39.5,343.5C 37.0646,341.459 36.898,339.126 39,336.5C 46.0528,326.954 52.8861,317.287 59.5,307.5C 71.2521,308.446 74.5854,303.779 69.5,293.5C 80.4476,277.885 91.7809,262.552 103.5,247.5 Z"/></g>
<g><path style="opacity:1" fill="#febb4a" d="M 380.5,249.5 C 384.888,248.943 388.055,250.61 390,254.5C 389.511,260.119 391.177,264.785 395,268.5C 396.378,272.987 395.212,276.487 391.5,279C 387.5,279.667 383.5,279.667 379.5,279C 378.333,277.833 377.167,276.667 376,275.5C 375.333,268.5 375.333,261.5 376,254.5C 377.025,252.313 378.525,250.646 380.5,249.5 Z"/></g>
<g><path style="opacity:1" fill="#ff9f3d" d="M 342.5,252.5 C 342.5,266.833 342.5,281.167 342.5,295.5C 339.592,296.569 336.592,296.736 333.5,296C 323.911,291.664 319.911,284.164 321.5,273.5C 320.888,258.778 327.888,251.778 342.5,252.5 Z"/></g>
<g><path style="opacity:1" fill="#ff9f3d" d="M 429.5,252.5 C 444.199,252.036 450.866,259.202 449.5,274C 451.026,288.967 444.36,296.467 429.5,296.5C 429.5,281.833 429.5,267.167 429.5,252.5 Z"/></g>
<g><path style="opacity:1" fill="#cb7c51" d="M 245.5,316.5 C 234.5,316.5 223.5,316.5 212.5,316.5C 212.333,300.83 212.5,285.163 213,269.5C 213.5,267.667 214.667,266.5 216.5,266C 225.167,265.333 233.833,265.333 242.5,266C 243.333,266.833 244.167,267.667 245,268.5C 245.5,284.497 245.667,300.497 245.5,316.5 Z"/></g>
<g><path style="opacity:1" fill="#ab5436" d="M 117.5,267.5 C 117.833,267.5 118.167,267.5 118.5,267.5C 118.351,268.552 118.517,269.552 119,270.5C 122.089,274.354 124.922,278.354 127.5,282.5C 116.162,282.667 104.828,282.5 93.5,282C 88.1667,277.333 88.1667,272.667 93.5,268C 101.493,267.5 109.493,267.334 117.5,267.5 Z"/></g>
<g><path style="opacity:1" fill="#ffae67" d="M 148.5,274.5 C 156.507,274.334 164.507,274.5 172.5,275C 177.143,277.072 178.643,280.572 177,285.5C 176.5,287.333 175.333,288.5 173.5,289C 164.833,289.667 156.167,289.667 147.5,289C 142.068,283.761 142.401,278.928 148.5,274.5 Z"/></g>
<g><path style="opacity:1" fill="#feae66" d="M 290.5,274.5 C 288.893,279.652 286.893,284.652 284.5,289.5C 281.138,289.93 278.305,288.93 276,286.5C 274.276,281.269 275.776,277.435 280.5,275C 283.817,274.502 287.15,274.335 290.5,274.5 Z"/></g>
<g><path style="opacity:1" fill="#febb4a" d="M 367.5,282.5 C 379.838,282.333 392.171,282.5 404.5,283C 410.232,288.608 409.565,293.274 402.5,297C 391.167,297.667 379.833,297.667 368.5,297C 363.311,294.087 362.144,289.92 365,284.5C 365.995,283.934 366.828,283.267 367.5,282.5 Z"/></g>
<g><path style="opacity:1" fill="#ab5436" d="M 69.5,293.5 C 74.5854,303.779 71.2521,308.446 59.5,307.5C 55.4295,307.766 51.4295,307.433 47.5,306.5C 43.1238,301.257 43.7905,296.757 49.5,293C 56.2166,292.244 62.8833,292.411 69.5,293.5 Z"/></g>
<g><path style="opacity:1" fill="#ab5436" d="M 108.5,305.5 C 114.509,305.334 120.509,305.501 126.5,306C 131.145,308.025 132.645,311.525 131,316.5C 129.786,318.049 128.286,319.215 126.5,320C 120.5,320.667 114.5,320.667 108.5,320C 101.899,315.171 101.899,310.338 108.5,305.5 Z"/></g>
<g><path style="opacity:1" fill="#fe9f3d" d="M 362.5,313.5 C 377.833,313.5 393.167,313.5 408.5,313.5C 414.859,322.851 421.192,332.185 427.5,341.5C 399.5,341.5 371.5,341.5 343.5,341.5C 349.833,332.167 356.167,322.833 362.5,313.5 Z"/></g>
<g><path style="opacity:0.995" fill="#fbc86b" d="M 460.5,340.5 C 464.355,339.845 467.188,341.179 469,344.5C 469.5,351.826 469.666,359.159 469.5,366.5C 423.167,366.5 376.833,366.5 330.5,366.5C 330.334,358.826 330.5,351.159 331,343.5C 331.717,342.956 332.217,342.289 332.5,341.5C 333.167,341.5 333.833,341.5 334.5,341.5C 337.5,341.5 340.5,341.5 343.5,341.5C 371.5,341.5 399.5,341.5 427.5,341.5C 438.581,341.81 449.581,341.477 460.5,340.5 Z"/></g>
<g><path style="opacity:0.998" fill="#e3b561" d="M 310.5,340.5 C 317.777,341.43 325.11,341.764 332.5,341.5C 332.217,342.289 331.717,342.956 331,343.5C 330.5,351.159 330.334,358.826 330.5,366.5C 327.833,366.5 325.167,366.5 322.5,366.5C 315.833,366.5 309.167,366.5 302.5,366.5C 302.334,358.826 302.5,351.159 303,343.5C 304.805,340.961 307.305,339.961 310.5,340.5 Z"/></g>
<g><path style="opacity:0.981" fill="#febb4a" d="M 294.5,366.5 C 293.878,367.627 293.045,368.627 292,369.5C 291.825,374.019 291.325,378.353 290.5,382.5C 195.166,382.667 99.8328,382.5 4.5,382C 2.67694,381.003 1.01027,379.836 -0.5,378.5C -0.5,375.833 -0.5,373.167 -0.5,370.5C 0.316435,368.856 1.64977,367.69 3.5,367C 100.499,366.5 197.499,366.333 294.5,366.5 Z"/></g>
<g><path style="opacity:0.999" fill="#e6a943" d="M 294.5,366.5 C 297.167,366.5 299.833,366.5 302.5,366.5C 309.167,366.5 315.833,366.5 322.5,366.5C 321.828,367.267 320.995,367.934 320,368.5C 319.5,377.16 319.334,385.827 319.5,394.5C 314.833,394.5 310.167,394.5 305.5,394.5C 300.5,394.5 295.5,394.5 290.5,394.5C 290.5,390.5 290.5,386.5 290.5,382.5C 291.325,378.353 291.825,374.019 292,369.5C 293.045,368.627 293.878,367.627 294.5,366.5 Z"/></g>
<g><path style="opacity:0.997" fill="#febb4a" d="M 322.5,366.5 C 325.167,366.5 327.833,366.5 330.5,366.5C 376.833,366.5 423.167,366.5 469.5,366.5C 472.518,366.335 475.518,366.502 478.5,367C 479,367.5 479.5,368 480,368.5C 480.5,377.16 480.666,385.827 480.5,394.5C 426.833,394.5 373.167,394.5 319.5,394.5C 319.334,385.827 319.5,377.16 320,368.5C 320.995,367.934 321.828,367.267 322.5,366.5 Z"/></g>
<g><path style="opacity:0.932" fill="#fbc96c" d="M 277.5,394.5 C 276.878,395.627 276.045,396.627 275,397.5C 274.825,402.019 274.325,406.353 273.5,410.5C 204.833,410.667 136.166,410.5 67.5,410C 62.0945,408.02 60.2611,404.186 62,398.5C 63.1667,397.333 64.3333,396.167 65.5,395C 136.166,394.5 206.833,394.333 277.5,394.5 Z"/></g>
<g><path style="opacity:0.996" fill="#e3b560" d="M 277.5,394.5 C 281.833,394.5 286.167,394.5 290.5,394.5C 295.5,394.5 300.5,394.5 305.5,394.5C 303.856,395.316 302.69,396.65 302,398.5C 301.5,405.492 301.334,412.492 301.5,419.5C 293.451,416.644 287.117,418.644 282.5,425.5C 280.736,421.401 277.736,418.734 273.5,417.5C 273.5,415.167 273.5,412.833 273.5,410.5C 274.325,406.353 274.825,402.019 275,397.5C 276.045,396.627 276.878,395.627 277.5,394.5 Z"/></g>
<g><path style="opacity:0.992" fill="#fbc86b" d="M 305.5,394.5 C 310.167,394.5 314.833,394.5 319.5,394.5C 373.167,394.5 426.833,394.5 480.5,394.5C 485.511,394.334 490.511,394.501 495.5,395C 496,395.5 496.5,396 497,396.5C 497.5,403.492 497.666,410.492 497.5,417.5C 493.285,418.711 490.285,421.378 488.5,425.5C 486.204,420.764 482.371,418.43 477,418.5C 474.37,418.464 471.87,418.964 469.5,420C 467.7,421.812 466.033,423.645 464.5,425.5C 463.409,422.572 461.409,420.406 458.5,419C 444.881,417.461 439.214,423.627 441.5,437.5C 404.167,437.5 366.833,437.5 329.5,437.5C 332.302,423.186 326.636,417.019 312.5,419C 309.614,420.385 307.614,422.551 306.5,425.5C 305.299,423.091 303.633,421.091 301.5,419.5C 301.334,412.492 301.5,405.492 302,398.5C 302.69,396.65 303.856,395.316 305.5,394.5 Z"/></g>
<g><path style="opacity:1" fill="#fe9f3d" d="M 273.5,417.5 C 277.736,418.734 280.736,421.401 282.5,425.5C 282.5,432.5 282.5,439.5 282.5,446.5C 282.201,449.642 280.534,451.809 277.5,453C 264.218,456.216 258.218,451.049 259.5,437.5C 259.334,433.486 259.501,429.486 260,425.5C 260.662,424.016 261.496,422.683 262.5,421.5C 265.491,418.611 269.158,417.278 273.5,417.5 Z"/></g>
<g><path style="opacity:0.993" fill="#feba49" d="M 301.5,419.5 C 303.633,421.091 305.299,423.091 306.5,425.5C 306.5,432.833 306.5,440.167 306.5,447.5C 303.916,452.126 299.916,454.126 294.5,453.5C 288.93,453.719 284.93,451.386 282.5,446.5C 282.5,439.5 282.5,432.5 282.5,425.5C 287.117,418.644 293.451,416.644 301.5,419.5 Z"/></g>
<g><path style="opacity:1" fill="#ff9f3d" d="M 329.5,437.5 C 330.835,450.992 324.835,456.159 311.5,453C 309.285,451.621 307.619,449.787 306.5,447.5C 306.5,440.167 306.5,432.833 306.5,425.5C 307.614,422.551 309.614,420.385 312.5,419C 326.636,417.019 332.302,423.186 329.5,437.5 Z"/></g>
<g><path style="opacity:1" fill="#ff9f3d" d="M 464.5,425.5 C 464.5,432.833 464.5,440.167 464.5,447.5C 463.746,450.091 462.079,451.924 459.5,453C 446.218,456.216 440.218,451.049 441.5,437.5C 439.214,423.627 444.881,417.461 458.5,419C 461.409,420.406 463.409,422.572 464.5,425.5 Z"/></g>
<g><path style="opacity:0.998" fill="#ffba49" d="M 488.5,425.5 C 488.5,432.833 488.5,440.167 488.5,447.5C 485.916,452.126 481.916,454.126 476.5,453.5C 471.362,453.678 467.362,451.678 464.5,447.5C 464.5,440.167 464.5,432.833 464.5,425.5C 466.033,423.645 467.7,421.812 469.5,420C 471.87,418.964 474.37,418.464 477,418.5C 482.371,418.43 486.204,420.764 488.5,425.5 Z"/></g>
<g><path style="opacity:1" fill="#ff9f3d" d="M 497.5,417.5 C 503.32,417.105 507.987,419.105 511.5,423.5C 511.5,431.5 511.5,439.5 511.5,447.5C 509.052,451.975 505.219,453.975 500,453.5C 494.819,453.993 490.986,451.993 488.5,447.5C 488.5,440.167 488.5,432.833 488.5,425.5C 490.285,421.378 493.285,418.711 497.5,417.5 Z"/></g>
<g><path style="opacity:0.972" fill="#ffbb49" d="M 262.5,421.5 C 261.496,422.683 260.662,424.016 260,425.5C 259.501,429.486 259.334,433.486 259.5,437.5C 179.166,437.667 98.8326,437.5 18.5,437C 14.7235,434.045 13.5568,430.212 15,425.5C 16.214,423.951 17.714,422.785 19.5,422C 100.499,421.5 181.499,421.333 262.5,421.5 Z"/></g>
</svg>
